<?xml version="1.0" encoding="utf-8"?>
<!-- Generator: Adobe Illustrator 22.0.1, SVG Export Plug-In . SVG Version: 6.00 Build 0)  -->
<svg version="1.1" id="看图工具_1_" xmlns="http://www.w3.org/2000/svg" xmlns:xlink="http://www.w3.org/1999/xlink" x="0px"
	 y="0px" viewBox="0 0 16 16" style="enable-background:new 0 0 16 16;" xml:space="preserve">
<style type="text/css">
	.st0{fill:#FFFFFF;}
	.st1{fill:#E0DED7;}
	.st2{fill:url(#SVGID_1_);}
	.st3{fill:#8DEA46;}
	.st4{opacity:0.15;fill:#FFFFFF;enable-background:new    ;}
	.st5{fill:#FF974C;}
	.st6{fill:#E57A45;}
	.st7{fill:#E56045;}
</style>
<g>
	<path class="st0" d="M0.3,15.8c-0.1,0-0.2-0.1-0.2-0.2V4.3c0-0.1,0-0.2,0.2-0.2h15.3c0.1,0,0.2,0.1,0.2,0.2v11.3
		c0,0.1-0.1,0.2-0.2,0.2H0.3z"/>
	<path class="st1" d="M15.7,4.3L15.7,4.3v11.3H0.4V4.3H15.7 M15.7,4H0.3C0.2,4,0,4.1,0,4.3v11.3C0,15.8,0.1,16,0.3,16h15.3
		c0.2,0,0.3-0.1,0.3-0.3V4.3C16,4.1,15.8,4,15.7,4L15.7,4z"/>
</g>
<linearGradient id="SVGID_1_" gradientUnits="userSpaceOnUse" x1="8" y1="0.9992" x2="8" y2="11.0033" gradientTransform="matrix(1 0 0 -1 0 16)">
	<stop  offset="0" style="stop-color:#3D9CCC"/>
	<stop  offset="1" style="stop-color:#45B0E5"/>
</linearGradient>
<path class="st2" d="M1.3,5h13.3C14.8,5,15,5.1,15,5.3v9.3c0,0.2-0.2,0.3-0.4,0.3H1.3C1.2,15,1,14.8,1,14.7V5.3C1,5.2,1.2,5,1.3,5z"
	/>
<path class="st3" d="M1,12.4L5.6,9l2.8,1.7l-2.5,2.4l4.6-2.6l4.6,3.2V15H1V12.4z"/>
<path class="st4" d="M0.4,4H14L3.7,16H0.4C0.2,16,0,15.5,0,15.3V4.4C0,4.2,0.2,4,0.4,4z"/>
<g>
	<path class="st5" d="M14.7,4.4c0-2.1-1.6-3.7-3.7-3.7S7.3,2.3,7.3,4.4c0,1.2,0.6,2.3,1.5,3l0,0C9.2,7.7,9.5,8,10,8.7
		c0.7,0,1.3,0,1.9,0c0.4-0.7,0.7-0.9,1.3-1.3l0,0C14.1,6.7,14.7,5.6,14.7,4.4z"/>
	<path class="st5" d="M10,9.4c0,0.5,0.4,1,1,1l0,0c0.5,0,1-0.4,1-1V9h-2V9.4z"/>
</g>
<path class="st6" d="M13,6.1L13,6.1c0.3-0.6,0.5-1.3,0.5-2c0-1.9-1.1-3.4-2.5-3.4C9.6,0.7,8.5,2.2,8.5,4c0,0.8,0.2,1.5,0.5,2l0,0
	c0.8,1.2,1.1,1.8,1.5,2.6c0.4,0,0.7,0,1.1,0c0.3-0.8,0.6-1.2,1.2-2.2C12.9,6.3,12.9,6.2,13,6.1C12.9,6.2,13,6.1,13,6.1z"/>
<path class="st7" d="M12.3,3.7c0-1.7-0.6-3-1.3-3s-1.3,1.4-1.3,3C9.8,4.4,9.8,5,10,5.5c0.3,1.4,0.5,2.1,0.7,3.2c0.2,0,0.4,0,0.6,0
	c0.2-1.2,0.3-1.8,0.7-3.1C12.2,5,12.3,4.4,12.3,3.7z"/>
</svg>
